<svg fill="none" viewBox="0 0 800 1500" width="800" height="1500" xmlns="http://www.w3.org/2000/svg">
  <foreignObject width="100%" height="100%">
    <div xmlns="http://www.w3.org/1999/xhtml">
      <style>
        * { margin: 0; padding: 0; box-sizing: border-box; }
        @keyframes fadeIn { from { opacity: 0; transform: translateY(10px); } to { opacity: 1; transform: translateY(0); } }
        @keyframes pulse { 0%, 100% { opacity: 0.3; } 50% { opacity: 0.8; } }
        .c {
          font-family: 'Segoe UI', system-ui, -apple-system, sans-serif;
          background: #0d1117;
          color: #e6edf3;
          min-height: 1500px;
          position: relative;
          overflow: hidden;
          padding: 0 40px 40px;
        }
        .gr {
          position: absolute;
          top: 0; left: 0; right: 0; bottom: 0;
          background-image:
            linear-gradient(rgba(0,68,129,0.04) 1px, transparent 1px),
            linear-gradient(90deg, rgba(0,68,129,0.04) 1px, transparent 1px);
          background-size: 40px 40px;
        }
        .gl {
          position: absolute;
          width: 400px; height: 400px;
          border-radius: 50%;
          background: radial-gradient(circle, rgba(0,68,129,0.10) 0%, transparent 70%);
          top: 140px; left: 50%;
          transform: translateX(-50%);
          animation: pulse 4s ease-in-out infinite;
        }
        .ct { position: relative; z-index: 1; }

        /* HERO */
        .hero { text-align: center; padding: 60px 0 50px; }
        .greet { font-size: 13px; color: #004481; letter-spacing: 5px; text-transform: uppercase; font-weight: 500; margin-bottom: 14px; }
        .nm { font-size: 44px; font-weight: 700; color: #fff; letter-spacing: -1px; margin-bottom: 14px; }
        .rl { font-size: 16px; color: #8b949e; margin-bottom: 20px; }
        .rl .hl { color: #004481; font-weight: 500; }
        .ln { width: 50px; height: 2px; background: linear-gradient(90deg, transparent, #004481, transparent); margin: 0 auto 22px; }
        .ht { display: flex; gap: 8px; justify-content: center; flex-wrap: wrap; }
        .htg { font-family: 'Courier New', monospace; font-size: 12px; color: #004481; background: rgba(0,68,129,0.08); border: 1px solid rgba(0,68,129,0.18); padding: 5px 14px; border-radius: 4px; letter-spacing: 1px; }

        /* DIVIDER */
        .dv { height: 1px; background: linear-gradient(90deg, transparent 0%, rgba(0,68,129,0.15) 50%, transparent 100%); margin: 10px 0 32px; }

        /* SECTION TITLE */
        .st { font-size: 12px; color: #004481; letter-spacing: 4px; text-transform: uppercase; font-weight: 500; margin-bottom: 20px; }

        /* CODE BLOCK */
        .cb { background: rgba(0,0,0,0.3); border: 1px solid rgba(48,54,61,0.6); border-radius: 8px; padding: 20px 24px; font-family: 'Courier New', monospace; font-size: 13px; line-height: 1.7; color: #8b949e; margin-bottom: 10px; }
        .cb .k { color: #c9d1d9; }
        .cb .s { color: #a5d6ff; }
        .cb .p { color: #6e7681; }

        /* ICON BADGES */
        .ib { display: flex; flex-wrap: wrap; gap: 10px; justify-content: center; margin-bottom: 10px; }
        .badge {
          display: inline-flex; align-items: center; gap: 8px;
          padding: 8px 16px; border-radius: 8px;
          font-size: 13px; font-weight: 500; color: #c9d1d9;
          background: rgba(255,255,255,0.03);
          border: 1px solid rgba(48,54,61,0.5);
        }
        .badge svg { flex-shrink: 0; }
        .lang-badge {
          padding: 10px 20px; font-size: 14px; font-weight: 600;
          background: rgba(0,68,129,0.08);
          border: 1px solid rgba(0,68,129,0.2);
          letter-spacing: 0.5px;
        }

        /* PROJECTS */
        .pj { display: flex; align-items: center; padding: 14px 0; border-bottom: 1px solid rgba(48,54,61,0.3); }
        .pj:last-child { border-bottom: none; }
        .pn { font-size: 14px; font-weight: 600; color: #004481; min-width: 155px; }
        .pd { font-size: 13px; color: #8b949e; flex: 1; }
        .ps { display: flex; gap: 6px; flex-wrap: wrap; justify-content: flex-end; }
        .pt { font-family: 'Courier New', monospace; font-size: 10px; color: #6e7681; background: rgba(0,0,0,0.25); padding: 3px 8px; border-radius: 3px; }

        /* CONNECT */
        .cn { text-align: center; padding: 10px 0 0; }
        .ct2 { font-size: 14px; color: #8b949e; margin-bottom: 6px; }
        .ce { font-size: 14px; color: #004481; font-weight: 500; }
      </style>
      <div class="c">
        <div class="gr"></div>
        <div class="gl"></div>
        <div class="ct">

          <!-- HERO -->
          <div class="hero">
            <div class="greet">Hello World</div>
            <div class="nm">Francisco Herrán</div>
            <div class="rl">Full Stack Developer · Co-Founder at <span class="hl">Alher Tech</span></div>
            <div class="ln"></div>
            <div class="ht">
              <span class="htg">React</span>
              <span class="htg">Next.js</span>
              <span class="htg">Spring Boot</span>
              <span class="htg">TypeScript</span>
              <span class="htg">AWS</span>
            </div>
          </div>

          <div class="dv"></div>

          <!-- ABOUT -->
          <div class="st">About</div>
          <div class="cb">
            <span class="p">const </span><span class="k">francisco</span> <span class="p">= {</span><br/>
            <span class="p">    </span><span class="k">location</span><span class="p">: </span><span class="s">"Madrid, Spain"</span><span class="p">,</span><br/>
            <span class="p">    </span><span class="k">role</span><span class="p">: </span><span class="s">"Full Stack Developer &amp; Co-Founder @ Alher Tech"</span><span class="p">,</span><br/>
            <span class="p">    </span><span class="k">education</span><span class="p">: </span><span class="s">"Software Engineering · UPM"</span><span class="p">,</span><br/>
            <span class="p">    </span><span class="k">building</span><span class="p">: [</span><span class="s">"Boathous"</span><span class="p">, </span><span class="s">"Alher Tech — +9 projects shipped"</span><span class="p">],</span><br/>
            <span class="p">};</span>
          </div>

          <div class="dv"></div>

          <!-- LANGUAGES -->
          <div class="st">Languages</div>
          <div class="ib" style="margin-bottom: 28px;">
            <span class="badge lang-badge">
              <svg width="18" height="18" viewBox="0 0 24 24" fill="#3178C6"><path d="M1.125 0C.502 0 0 .502 0 1.125v21.75C0 23.498.502 24 1.125 24h21.75c.623 0 1.125-.502 1.125-1.125V1.125C24 .502 23.498 0 22.875 0zm17.363 9.75c.612 0 1.154.037 1.627.111a6.38 6.38 0 0 1 1.306.34v2.458a3.95 3.95 0 0 0-.643-.361 5.093 5.093 0 0 0-.717-.26 5.453 5.453 0 0 0-1.426-.2c-.3 0-.573.028-.819.086a2.1 2.1 0 0 0-.623.242c-.17.104-.3.229-.393.374a.888.888 0 0 0-.14.49c0 .196.053.373.156.529.104.156.252.304.443.444s.423.276.696.41c.273.135.582.274.926.416.47.197.892.407 1.266.628.374.222.695.473.963.753.268.279.472.598.614.957.142.359.214.776.214 1.253 0 .657-.125 1.21-.373 1.656a3.033 3.033 0 0 1-1.012 1.085 4.38 4.38 0 0 1-1.487.596c-.566.12-1.163.18-1.79.18a9.916 9.916 0 0 1-1.84-.164 5.544 5.544 0 0 1-1.512-.493v-2.63a5.033 5.033 0 0 0 3.237 1.2c.333 0 .624-.03.872-.09.249-.06.456-.144.623-.25.166-.108.29-.234.373-.38a1.023 1.023 0 0 0-.074-1.089 2.12 2.12 0 0 0-.537-.5 5.597 5.597 0 0 0-.807-.444 27.72 27.72 0 0 0-1.007-.436c-.918-.383-1.602-.852-2.053-1.405-.45-.553-.676-1.222-.676-2.005 0-.614.123-1.141.369-1.582.246-.441.58-.804 1.004-1.089a4.494 4.494 0 0 1 1.47-.629 7.536 7.536 0 0 1 1.77-.201zm-15.113.188h9.563v2.166H9.506v9.646H6.789v-9.646H3.375z"/></svg>
              TypeScript
            </span>
            <span class="badge lang-badge">
              <svg width="18" height="18" viewBox="0 0 24 24" fill="#ED8B00"><path d="M8.851 18.56s-.917.534.653.714c.575.085 1.239.134 1.913.134 1.084 0 2.138-.125 3.149-.363l-.093.009a11.6 11.6 0 0 1-5.622-.494zm-.394-2.127s-1.022.758.542.919c.768.081 1.551.104 2.334.068l-.064.003a15.4 15.4 0 0 0 3.093-.403l.1-.027s.389.249-.337.467a19.4 19.4 0 0 1-5.668-.03v.003zm2.383-3.63c.938 1.082-.247 2.054-.247 2.054s2.387-1.232 1.29-2.773c-1.024-1.44-1.808-2.155 2.44-4.622 0 0-6.669 1.664-3.483 5.341zm6.697 9.752s.679.559-.747.992c-2.712.822-11.288 1.069-13.669.033-.856-.373.75-.89 1.254-.998.232-.059.488-.093.744-.093h-.015c-.573-.403-8.252 1.456-3.543 2.085 12.843 1.716 23.42-.773 15.976-2.019zm-10.5-7.606s-5.852 1.391-2.074 1.895a43.6 43.6 0 0 0 4.128.058l-.123.003c1.529-.027 3.057-.105 4.571-.234l-.19.016s-.76.325-1.313.483c-4.834 1.27-14.167-.687-11.478-2.017 2.275-1.126 6.479-1.204 6.479-1.204zm8.552 4.799c.736-.455 1.188-1.092 1.188-1.092a11.6 11.6 0 0 1-4.482 1.644l.062-.009c-3.667.467-8.032.264-10.647-.36 0 0 .537.443 3.292.619 4.213.268 10.534.148 11.587-.802zM15.823 0s3.188 3.188-3.022 8.093c-4.975 3.933-1.133 6.173-.001 8.736-2.901-2.619-5.03-4.924-3.602-7.074C11.291 6.885 17.109 5.283 15.823 0zM9.368 23.883a29 29 0 0 0 4.739.298l-.153-.002a9.5 9.5 0 0 0 3.478-.64l-.078.028s-.243.392-2.453.706a27 27 0 0 1-7.599-.17l.173.024s.559.463 1.893.456z"/></svg>
              Java
            </span>
            <span class="badge lang-badge">
              <svg width="18" height="18" viewBox="0 0 24 24" fill="#3776AB"><path d="M14.25.18l.9.2.73.26.59.3.45.32.34.34.25.34.16.33.1.3.04.26.02.2-.01.13V8.5l-.05.63-.13.55-.21.46-.26.38-.3.31-.33.25-.35.19-.35.14-.33.1-.3.07-.26.04-.21.02H8.77l-.69.05-.59.14-.5.22-.41.27-.33.32-.27.35-.2.36-.15.37-.1.35-.07.32-.04.27-.02.21v3.06H3.17l-.21-.03-.28-.07-.32-.12-.35-.18-.36-.26-.36-.36-.35-.46-.32-.59-.28-.73-.21-.88-.14-1.05-.05-1.23.06-1.22.16-1.04.24-.87.32-.71.36-.57.4-.44.42-.33.42-.24.4-.16.36-.1.32-.05.24-.01h.16l.06.01h8.16v-.83H6.18l-.01-2.75-.02-.37.05-.34.11-.31.17-.28.25-.26.31-.23.38-.2.44-.18.51-.15.58-.12.64-.1.71-.06.77-.04.84-.02 1.27.05zm-6.3 1.98l-.23.33-.08.41.08.41.23.34.33.22.41.09.41-.09.33-.22.23-.34.08-.41-.08-.41-.23-.33-.33-.22-.41-.09-.41.09zm13.09 3.95l.28.06.32.12.35.18.36.27.36.35.35.47.32.59.28.73.21.88.14 1.04.05 1.23-.06 1.23-.16 1.04-.24.86-.32.71-.36.57-.4.45-.42.33-.42.24-.4.16-.36.09-.32.05-.24.02-.16-.01h-8.22v.82h5.84l.01 2.76.02.36-.05.34-.11.31-.17.29-.25.25-.31.24-.38.2-.44.17-.51.15-.58.13-.64.09-.71.07-.77.04-.84.01-1.27-.04-1.07-.14-.9-.2-.73-.25-.59-.3-.45-.33-.34-.34-.25-.34-.16-.33-.1-.3-.04-.25-.02-.2.01-.13v-5.34l.05-.64.13-.54.21-.46.26-.38.3-.32.33-.24.35-.2.35-.14.33-.1.3-.06.26-.04.21-.02.13-.01h5.84l.69-.05.59-.14.5-.21.41-.28.33-.32.27-.35.2-.36.15-.36.1-.35.07-.32.04-.28.02-.21V6.07h2.09l.14.01zm-6.47 14.25l-.23.33-.08.41.08.41.23.33.33.23.41.08.41-.08.33-.23.23-.33.08-.41-.08-.41-.23-.33-.33-.23-.41-.08-.41.08z"/></svg>
              Python
            </span>
            <span class="badge lang-badge">
              <svg width="18" height="18" viewBox="0 0 24 24" fill="#F7DF1E"><path d="M0 0h24v24H0V0zm22.034 18.276c-.175-1.095-.888-2.015-3.003-2.873-.736-.345-1.554-.585-1.797-1.14-.091-.33-.105-.51-.046-.705.15-.646.915-.84 1.515-.66.39.12.75.42.976.9 1.034-.676 1.034-.676 1.755-1.125-.27-.42-.404-.601-.586-.78-.63-.705-1.469-1.065-2.834-1.034l-.705.089c-.676.165-1.32.525-1.71 1.005-1.14 1.291-.811 3.541.569 4.471 1.365 1.02 3.361 1.244 3.616 2.205.24 1.17-.87 1.545-1.966 1.41-.811-.18-1.26-.586-1.755-1.336l-1.83 1.051c.21.48.45.689.81 1.109 1.74 1.756 6.09 1.666 6.871-1.004.029-.09.24-.705.074-1.65l.046.067zm-8.983-7.245h-2.248c0 1.938-.009 3.864-.009 5.805 0 1.232.063 2.363-.138 2.711-.33.689-1.18.601-1.566.48-.396-.196-.597-.466-.83-.855-.063-.105-.11-.196-.127-.196l-1.825 1.125c.305.63.75 1.172 1.324 1.517.855.51 2.004.675 3.207.405.783-.226 1.458-.691 1.811-1.411.51-.93.402-2.07.397-3.346.012-2.054 0-4.109 0-6.179l.004-.056z"/></svg>
              JavaScript
            </span>
          </div>

          <!-- STACK -->
          <div class="st">Stack</div>
          <div class="ib">
            <span class="badge">
              <svg width="16" height="16" viewBox="0 0 24 24" fill="#61DAFB"><path d="M14.23 12.004a2.236 2.236 0 0 1-2.235 2.236 2.236 2.236 0 0 1-2.236-2.236 2.236 2.236 0 0 1 2.235-2.236 2.236 2.236 0 0 1 2.236 2.236zm2.648-10.69c-1.346 0-3.107.96-4.888 2.622-1.78-1.653-3.542-2.602-4.887-2.602-.41 0-.783.093-1.106.278-1.375.793-1.683 3.264-.973 6.365C1.98 8.917 0 10.42 0 12.004c0 1.59 1.99 3.097 5.043 4.03-.704 3.113-.39 5.588.988 6.38.32.187.69.275 1.102.275 1.345 0 3.107-.96 4.888-2.624 1.78 1.654 3.542 2.603 4.887 2.603.41 0 .783-.09 1.106-.275 1.374-.792 1.683-3.263.973-6.365C22.02 15.096 24 13.59 24 12.004c0-1.59-1.99-3.097-5.043-4.032.704-3.11.39-5.587-.988-6.38a2.167 2.167 0 0 0-1.092-.278z"/></svg>
              React
            </span>
            <span class="badge">
              <svg width="16" height="16" viewBox="0 0 24 24" fill="#ffffff"><path d="M18.665 21.978C16.758 23.255 14.465 24 12 24 5.377 24 0 18.623 0 12S5.377 0 12 0s12 5.377 12 12c0 3.583-1.574 6.801-4.067 9.001L9.219 7.2H7.2v9.596h1.615V9.251l9.85 12.727Zm-3.332-8.533 1.6 2.061V7.2h-1.6v6.245Z"/></svg>
              Next.js
            </span>
            <span class="badge">
              <svg width="16" height="16" viewBox="0 0 24 24" fill="#06B6D4"><path d="M12.001,4.8c-3.2,0-5.2,1.6-6,4.8c1.2-1.6,2.6-2.2,4.2-1.8c0.913,0.228,1.565,0.89,2.288,1.624C13.666,10.618,15.027,12,18.001,12c3.2,0,5.2-1.6,6-4.8c-1.2,1.6-2.6,2.2-4.2,1.8c-0.913-0.228-1.565-0.89-2.288-1.624C16.337,6.182,14.976,4.8,12.001,4.8z M6.001,12c-3.2,0-5.2,1.6-6,4.8c1.2-1.6,2.6-2.2,4.2-1.8c0.913,0.228,1.565,0.89,2.288,1.624c1.177,1.194,2.538,2.576,5.512,2.576c3.2,0,5.2-1.6,6-4.8c-1.2,1.6-2.6,2.2-4.2,1.8c-0.913-0.228-1.565-0.89-2.288-1.624C10.337,13.382,8.976,12,6.001,12z"/></svg>
              Tailwind
            </span>
            <span class="badge">
              <svg width="16" height="16" viewBox="0 0 24 24" fill="#6DB33F"><path d="m23.693 10.706-4.73-8.184c-.41-.711-1.417-1.294-2.24-1.294H7.273c-.82 0-1.831.583-2.24 1.294L.307 10.706c-.41.71-.41 1.873 0 2.584l4.725 8.189c.41.71 1.417 1.294 2.24 1.294h9.455c.82 0 1.826-.584 2.24-1.294l4.726-8.189c.409-.711.409-1.873 0-2.584zM10.976 5.755c0-.537.438-.974.974-.974s.974.437.974.974v5.822c0 .536-.438.974-.974.974s-.974-.438-.974-.974zm.974 12.429c-3.643 0-6.608-2.965-6.608-6.608.005-2.09.993-4.052 2.669-5.304a.866.866 0 0 1 1.214.179.866.866 0 0 1-.179 1.214c-2.16 1.605-2.612 4.66-1.007 6.82 1.605 2.16 4.66 2.612 6.82 1.007 1.237-.918 1.967-2.372 1.967-3.916a4.897 4.897 0 0 0-1.986-3.925c-.386-.282-.466-.828-.184-1.214.283-.386.829-.466 1.215-.184 1.69 1.247 2.682 3.224 2.687 5.323 0 3.647-2.965 6.608-6.608 6.608z"/></svg>
              Spring Boot
            </span>
            <span class="badge">
              <svg width="16" height="16" viewBox="0 0 24 24" fill="#5FA04E"><path d="M11.998,24c-0.321,0-0.641-0.084-0.922-0.247l-2.936-1.737c-0.438-0.245-0.224-0.332-0.08-0.383c0.585-0.203,0.703-0.25,1.328-0.604c0.065-0.037,0.151-0.023,0.218,0.017l2.256,1.339c0.082,0.045,0.197,0.045,0.272,0l8.795-5.076c0.082-0.047,0.134-0.141,0.134-0.238V6.921c0-0.099-0.053-0.192-0.137-0.242l-8.791-5.072c-0.081-0.047-0.189-0.047-0.271,0L3.075,6.68C2.99,6.729,2.936,6.825,2.936,6.921v10.15c0,0.097,0.054,0.189,0.139,0.235l2.409,1.392c1.307,0.654,2.108-0.116,2.108-0.89V7.787c0-0.142,0.114-0.253,0.256-0.253h1.115c0.139,0,0.255,0.112,0.255,0.253v10.021c0,1.745-0.95,2.745-2.604,2.745c-0.508,0-0.909,0-2.026-0.551L2.28,18.675c-0.57-0.329-0.922-0.945-0.922-1.604V6.921c0-0.659,0.353-1.275,0.922-1.603l8.795-5.082c0.557-0.315,1.296-0.315,1.848,0l8.794,5.082c0.57,0.329,0.924,0.944,0.924,1.603v10.15c0,0.659-0.354,1.273-0.924,1.604l-8.794,5.078C12.643,23.916,12.324,24,11.998,24z"/></svg>
              Node.js
            </span>
            <span class="badge">
              <svg width="16" height="16" viewBox="0 0 24 24" fill="#4169E1"><path d="M17.193 9.555c-1.264-5.58-4.252-7.414-4.573-8.115-.28-.394-.53-.954-.735-1.44-.036.495-.055.685-.523 1.184-.723.566-4.438 3.682-4.74 10.02-.282 5.912 4.27 9.435 4.888 9.884l.07.05A73.49 73.49 0 0111.91 24h.481c.114-1.032.284-2.056.51-3.07.417-.296.604-.463.85-.693a11.342 11.342 0 003.639-8.464c.01-.814-.103-1.662-.197-2.218z"/></svg>
              PostgreSQL
            </span>
            <span class="badge">
              <svg width="16" height="16" viewBox="0 0 24 24" fill="#47A248"><path d="M17.193 9.555c-1.264-5.58-4.252-7.414-4.573-8.115-.28-.394-.53-.954-.735-1.44-.036.495-.055.685-.523 1.184-.723.566-4.438 3.682-4.74 10.02-.282 5.912 4.27 9.435 4.888 9.884l.07.05A73.49 73.49 0 0111.91 24h.481c.114-1.032.284-2.056.51-3.07.417-.296.604-.463.85-.693a11.342 11.342 0 003.639-8.464c.01-.814-.103-1.662-.197-2.218zm-5.336 8.195s0-8.291.275-8.29c.213 0 .49 10.695.49 10.695-.381-.045-.765-1.76-.765-2.405z"/></svg>
              MongoDB
            </span>
            <span class="badge">
              <svg width="16" height="16" viewBox="0 0 24 24" fill="#FF4438"><path d="M10.5 2.661l.54.997-1.797.644 2.409.218.583 1.078-1.873.591 2.295.168.616 1.14-3.14 1.612-2.793 1.1.382-.674-1.905-.34.79-1.593-2.106-.382.73-1.31L3.036 5.59l.76-1.315-2.005-.35L3.31 1.57l.954-.098.497-.92 1.394.857 1.178-1.173.44 1.134L10.5 2.661zm11.236 8.649l-.504-.076-.17-.464.263-.424-.261-.425.17-.463.505-.076.332-.386.476.143.48-.127.346.374.39-.27.416.28-.004.508.438.31-.174.466.327.397-.276.408.126.483-.487.17-.095.49-.47.21-.13.477-.49-.108-.385.308-.394-.319-.492.122-.099-.49-.483-.185.13-.48-.394-.303.323-.39-.33-.395.437-.319-.017-.505.427-.264z"/></svg>
              Redis
            </span>
            <span class="badge">
              <svg width="16" height="16" viewBox="0 0 24 24" fill="#FF9900"><path d="M6.763 10.036c0 .296.032.535.088.71.064.176.144.368.256.576.04.063.056.127.056.183 0 .08-.048.16-.152.24l-.503.335a.383.383 0 0 1-.208.072c-.08 0-.16-.04-.239-.112a2.47 2.47 0 0 1-.287-.375 6.18 6.18 0 0 1-.248-.471c-.622.734-1.405 1.101-2.347 1.101-.67 0-1.205-.191-1.596-.574-.391-.384-.59-.894-.59-1.533 0-.678.239-1.23.726-1.644.487-.415 1.133-.623 1.955-.623.272 0 .551.024.846.064.296.04.6.104.918.176v-.583c0-.607-.127-1.03-.375-1.277-.255-.248-.686-.367-1.3-.367-.28 0-.568.031-.863.103a6.4 6.4 0 0 0-.862.272 2.287 2.287 0 0 1-.28.104.488.488 0 0 1-.127.023c-.112 0-.168-.08-.168-.247v-.391c0-.128.016-.224.056-.28a.597.597 0 0 1 .224-.167c.279-.144.614-.264 1.005-.36a4.84 4.84 0 0 1 1.246-.151c.95 0 1.644.216 2.091.647.439.43.662 1.085.662 1.963v2.586zM21.698 16.207c-2.626 1.94-6.442 2.969-9.722 2.969-4.598 0-8.74-1.7-11.87-4.526-.247-.223-.024-.527.272-.351 3.384 1.963 7.559 3.153 11.877 3.153 2.914 0 6.114-.607 9.06-1.852.439-.2.814.287.383.607zM22.792 14.961c-.336-.43-2.22-.207-3.074-.103-.255.032-.295-.192-.063-.36 1.5-1.053 3.967-.75 4.254-.399.287.36-.08 2.826-1.485 4.007-.215.184-.423.088-.327-.151.32-.79 1.03-2.57.695-2.994z"/></svg>
              AWS
            </span>
            <span class="badge">
              <svg width="16" height="16" viewBox="0 0 24 24" fill="#2496ED"><path d="M13.983 11.078h2.119a.186.186 0 00.186-.185V9.006a.186.186 0 00-.186-.186h-2.119a.185.185 0 00-.185.185v1.888c0 .102.083.185.185.185m-2.954-5.43h2.118a.186.186 0 00.186-.186V3.574a.186.186 0 00-.186-.185h-2.118a.185.185 0 00-.185.185v1.888c0 .102.082.185.185.185m0 2.716h2.118a.187.187 0 00.186-.186V6.29a.186.186 0 00-.186-.185h-2.118a.185.185 0 00-.185.185v1.887c0 .102.082.185.185.186m-2.93 0h2.12a.186.186 0 00.184-.186V6.29a.185.185 0 00-.185-.185H8.1a.185.185 0 00-.185.185v1.887c0 .102.083.185.185.186m-2.964 0h2.119a.186.186 0 00.185-.186V6.29a.185.185 0 00-.185-.185H5.136a.186.186 0 00-.186.185v1.887c0 .102.084.185.186.186m5.893 2.715h2.118a.186.186 0 00.186-.185V9.006a.186.186 0 00-.186-.186h-2.118a.185.185 0 00-.185.185v1.888c0 .102.082.185.185.185m-2.93 0h2.12a.185.185 0 00.184-.185V9.006a.185.185 0 00-.184-.186h-2.12a.185.185 0 00-.184.185v1.888c0 .102.083.185.185.185m-2.964 0h2.119a.185.185 0 00.185-.185V9.006a.185.185 0 00-.184-.186h-2.12a.186.186 0 00-.186.186v1.887c0 .102.084.185.186.185m-2.92 0h2.12a.185.185 0 00.184-.185V9.006a.185.185 0 00-.184-.186h-2.12a.185.185 0 00-.184.185v1.888c0 .102.082.185.185.185M23.763 9.89c-.065-.051-.672-.51-1.954-.51-.338.001-.676.03-1.01.087-.248-1.7-1.653-2.53-1.716-2.566l-.344-.199-.226.327c-.284.438-.49.922-.612 1.43-.23.97-.09 1.882.403 2.661-.595.332-1.55.413-1.744.42H.751a.751.751 0 00-.75.748 11.376 11.376 0 00.692 4.062c.545 1.428 1.355 2.48 2.41 3.124 1.18.723 3.1 1.137 5.275 1.137.983.003 1.963-.086 2.93-.266a12.248 12.248 0 003.823-1.389c.98-.567 1.86-1.288 2.61-2.136 1.252-1.418 1.998-2.997 2.553-4.4h.221c1.372 0 2.215-.549 2.68-1.009.309-.293.55-.65.707-1.046l.098-.288Z"/></svg>
              Docker
            </span>
            <span class="badge">
              <svg width="16" height="16" viewBox="0 0 24 24" fill="#ffffff"><path d="M24 22.525H0l12-21.05 12 21.05z"/></svg>
              Vercel
            </span>
            <span class="badge">
              <svg width="16" height="16" viewBox="0 0 24 24" fill="#008CDD"><path d="M13.976 9.15c-2.172-.806-3.356-1.426-3.356-2.409 0-.831.683-1.305 1.901-1.305 2.227 0 4.515.858 6.09 1.631l.89-5.494C18.252.975 15.697 0 12.165 0 9.667 0 7.589.654 6.104 1.872 4.56 3.147 3.757 4.992 3.757 7.218c0 4.039 2.467 5.76 6.476 7.219 2.585.92 3.445 1.574 3.445 2.583 0 .98-.84 1.545-2.354 1.545-1.875 0-4.965-.921-6.99-2.109l-.9 5.555C5.175 22.99 8.385 24 11.714 24c2.641 0 4.843-.624 6.328-1.813 1.664-1.305 2.525-3.236 2.525-5.732 0-4.128-2.524-5.851-6.591-7.305z"/></svg>
              Stripe
            </span>
            <span class="badge">
              <svg width="16" height="16" viewBox="0 0 24 24" fill="#FFCA28"><path d="M3.89 15.672L6.255.461A.542.542 0 017.27.288l2.543 4.771zm16.794 3.692l-2.25-14a.666.666 0 00-1.134-.398L3.37 19.364l8.13 4.484a1.48 1.48 0 001.395 0zm-6.848-8.71L12.02 7.47a.637.637 0 00-1.12 0L9.082 11.2z"/></svg>
              Firebase
            </span>
            <span class="badge">
              <svg width="16" height="16" viewBox="0 0 24 24" fill="#412991"><path d="M22.282 9.821a5.985 5.985 0 0 0-.516-4.91 6.046 6.046 0 0 0-6.51-2.9A6.065 6.065 0 0 0 4.981 4.18a5.985 5.985 0 0 0-3.998 2.9 6.046 6.046 0 0 0 .743 7.097 5.98 5.98 0 0 0 .51 4.911 6.051 6.051 0 0 0 6.515 2.9A5.985 5.985 0 0 0 13.26 24a6.056 6.056 0 0 0 5.772-4.206 5.99 5.99 0 0 0 3.997-2.9 6.056 6.056 0 0 0-.747-7.073zM13.26 22.43a4.476 4.476 0 0 1-2.876-1.04l.141-.081 4.779-2.758a.795.795 0 0 0 .392-.681v-6.737l2.02 1.168a.071.071 0 0 1 .038.052v5.583a4.504 4.504 0 0 1-4.494 4.494zM3.6 18.304a4.47 4.47 0 0 1-.535-3.014l.142.085 4.783 2.759a.771.771 0 0 0 .78 0l5.843-3.369v2.332a.08.08 0 0 1-.033.062L9.74 19.95a4.5 4.5 0 0 1-6.14-1.646zM2.34 7.896a4.485 4.485 0 0 1 2.366-1.973V11.6a.766.766 0 0 0 .388.676l5.815 3.355-2.02 1.168a.076.076 0 0 1-.071 0l-4.83-2.786A4.504 4.504 0 0 1 2.34 7.872zm16.597 3.855l-5.833-3.387L15.119 7.2a.076.076 0 0 1 .071 0l4.83 2.791a4.494 4.494 0 0 1-.676 8.105v-5.678a.79.79 0 0 0-.407-.667zm2.01-3.023l-.141-.085-4.774-2.782a.776.776 0 0 0-.785 0L9.409 9.23V6.897a.066.066 0 0 1 .028-.061l4.83-2.787a4.5 4.5 0 0 1 6.68 4.66zm-12.64 4.135l-2.02-1.164a.08.08 0 0 1-.038-.057V6.075a4.5 4.5 0 0 1 7.375-3.453l-.142.08L8.704 5.46a.795.795 0 0 0-.393.681zm1.097-2.365l2.602-1.5 2.607 1.5v2.999l-2.597 1.5-2.607-1.5z"/></svg>
              OpenAI
            </span>
          </div>

          <div class="dv"></div>

          <!-- PROJECTS -->
          <div class="st">Projects in Production</div>
          <div>
            <div class="pj">
              <div class="pn">boathous.com</div>
              <div class="pd">Boat rental &amp; sales marketplace</div>
              <div class="ps">
                <span class="pt">React</span><span class="pt">Spring Boot</span><span class="pt">Stripe</span>
              </div>
            </div>
            <div class="pj">
              <div class="pn">alquilia.io</div>
              <div class="pd">AI-powered rental management</div>
              <div class="ps">
                <span class="pt">Next.js</span><span class="pt">Spring Boot</span><span class="pt">OpenAI</span>
              </div>
            </div>
            <div class="pj">
              <div class="pn">nurdoc.es</div>
              <div class="pd">Home healthcare platform</div>
              <div class="ps">
                <span class="pt">Next.js</span><span class="pt">Spring Boot</span><span class="pt">Maps</span>
              </div>
            </div>
            <div class="pj">
              <div class="pn">almia.education</div>
              <div class="pd">AI educational platform</div>
              <div class="ps">
                <span class="pt">Next.js</span><span class="pt">Spring Boot</span><span class="pt">OpenAI</span>
              </div>
            </div>
            <div class="pj">
              <div class="pn">reservpark.com</div>
              <div class="pd">Smart parking app</div>
              <div class="ps">
                <span class="pt">React Native</span><span class="pt">Spring Boot</span><span class="pt">AWS</span>
              </div>
            </div>
          </div>

          <div class="dv"></div>

          <!-- CONNECT -->
          <div class="cn">
            <div class="ct2">Open to projects and collaborations</div>
            <div class="ce">francisco.herran@alhertech.com</div>
          </div>

        </div>
      </div>
    </div>
  </foreignObject>
</svg>
